<?xml version="1.0" encoding="UTF-8"?>
<svg width="62px" height="62px" viewBox="0 0 62 62" version="1.1" xmlns="http://www.w3.org/2000/svg" xmlns:xlink="http://www.w3.org/1999/xlink">
  <g id="Logo">
    <path fill="#000" d="M0,62 L62,62 L62,0 L0,0 L0,62 Z M4.31969205,57.680308 L57.680308,57.680308 L57.680308,4.31915209 L4.31969205,4.31915209 L4.31969205,57.680308 Z" id="Fill-1"></path>
    <path fill="#FFF" d="M24.0481081,44.2202413 L19,44.2202413 L19,18 L24.0481081,18 L24.0481081,29.8913739 C24.7378378,27.7824522 27.2075676,26.8730609 28.8054054,26.8730609 C33.2713514,26.8730609 35.5962162,29.8551065 35.5962162,34.9834239 L35.5962162,44.2202413 L30.5486486,44.2202413 L30.5486486,35.1647609 C30.5486486,32.9464957 28.9508108,31.7826913 27.4254054,31.7826913 C25.8275676,31.7826913 24.0481081,32.6552739 24.0481081,35.2372957 L24.0481081,44.2202413 Z" id="Fill-20"></path>
    <path fill="#FFF" d="M37.6535135,44.2202413 L42.6648649,44.2202413 L42.6648649,27.2368174 L37.6535135,27.2368174 L37.6535135,44.2202413 Z M40.1594595,18 C41.867027,18 43.2464865,19.2726065 43.2464865,20.9446957 C43.2464865,22.6178674 41.867027,23.9278239 40.1594595,23.9278239 C38.4524324,23.9278239 37,22.6178674 37,20.9446957 C37,19.2726065 38.4524324,18 40.1594595,18 Z" id="Fill-21"></path>
  </g>
</svg>
